# xmcd CD database file
#
# Track frame offsets:
#	150
#	15617
#	43606
#	71310
#	90984
#	112622
#	135860
#	145491
#	170330
#	190788
#	210334
#	234824
#	256470
#	277849
#
# Disc length: 3840 seconds
#
# Revision: 0
# Processed by: cddbd v1.5.1PL0 Copyright (c) Steve Scherf et al.
# Submitted via: CDex 1.51
#
DISCID=a50efe0e
DTITLE=The Stable Roof Jazz and Blues Band - Everybody Knows
DYEAR=2004
DGENRE=Jazz
TTITLE0=Everbody Knows (Hodges/Ellington)
TTITLE1=St.Louis Blues (Handy)
TTITLE2=Jeep's blues (Hodges/Ellington)
TTITLE3=Canal Street Blues (Oliver/Amstrong)
TTITLE4=Brown skin girls (Rollins)
TTITLE5=St. James Infirmary (Primrose)
TTITLE6=Stable Roof Rag (Schoen)
TTITLE7=See see rider (Rainey)
TTITLE8=Old rugged cross (traditional)
TTITLE9=Muskat ramble (Ory)
TTITLE10=Some of this days (Brook)
TTITLE11=Petite Fleur (Bechet)
TTITLE12=Sheik of Araby (Snyder/Smith/Wheeler)
TTITLE13=Night train (Forrest/Simpkins/Washington)
EXTD=YEAR: 2004
EXTT0=
EXTT1=
EXTT2=
EXTT3=
EXTT4=
EXTT5=
EXTT6=
EXTT7=
EXTT8=
EXTT9=
EXTT10=
EXTT11=
EXTT12=
EXTT13=
PLAYORDER=
